# xmcd
#
# Track frame offsets:
#	150
#	21540
#	40575
#	55555
#	76787
#	107582
#	122790
#	143442
#	159107
#	189480
#	206097
#	228032
#	245972
#	266475
#
# Disc length: 3764 seconds
#
# Revision: 1
# Processed by: cddbd v1.4PL0 Copyright (c) Steve Scherf et al.
# Submitted via: audiograbber 1.80.04
#
DISCID=ad0eb20e
DTITLE=Bluecat Band - Blueprints
DYEAR=1900
DGENRE=Blues
TTITLE0=Delta bound
TTITLE1=Blues From The Heart
TTITLE2=Trip, Stumble and Fall
TTITLE3=Just Another Stone In The Road
TTITLE4=Midnight Rider
TTITLE5=Love's a Dangerous Thing
TTITLE6=Keepin' The Blues Alive
TTITLE7=Every Little Bit Helps
TTITLE8=I Put A Spell On You
TTITLE9=Hard Times Comin' down
TTITLE10=Baby, You've Given Up On Me
TTITLE11=Too Young To Die
TTITLE12=There's Plenty Of Blues To Go Around
TTITLE13=Born On A River
EXTD=Al Carmichael, guitar, slide guitar and vocals\nTim Garrick, guitar,acoustic
EXTD=guitar and vocals\nDuane Larkin, bass guitar\nKen Murphy, drums\nGeorge Can
EXTD=terbury, piano, organ, synthesizer
EXTT0=
EXTT1=
EXTT2=
EXTT3=
EXTT4=
EXTT5=
EXTT6=
EXTT7=
EXTT8=
EXTT9=
EXTT10=
EXTT11=
EXTT12=
EXTT13=
PLAYORDER=
